# xmcd
#
# Track frame offsets: 
#        150
#        19949
#        35557
#        58458
#        72372
#        92256
#        107406
#        128268
#        155226
#        173783
#        193696
#        206535
#        222717
#        234106
#
# Disc length: 3372 seconds
#
# Revision: 0
# Processed by: cddbd v1.5.2PL0 Copyright (c) Steve Scherf et al.
# Submitted via: ExactAudioCopy v1.3
#
DISCID=c20d2a0e
DTITLE=Fat Harry - Hard Lovin' Man
DYEAR=2012
DGENRE=Blues
TTITLE0=Hard Lovin' Man
TTITLE1=Slippin' and Slidin'
TTITLE2=Jealous Man
TTITLE3=Silicon Woman
TTITLE4=Don't Know You That Well (feat. Henry Oden)
TTITLE5=Sweet Home Abudaldah
TTITLE6=Tell Me Your Plan
TTITLE7=As the Year Go Passing By (feat. Preston Shannon)
TTITLE8=No One Wants to be the First to Cry
TTITLE9=It's All My Fault
TTITLE10=Richmond, California
TTITLE11=Shade Tree Mechanic
TTITLE12=Vapotramp
TTITLE13=Feel Like Breaking Up Somebody's Home (feat. Preston Shannon)
EXTD=
EXTT0=
EXTT1=
EXTT2=
EXTT3=
EXTT4=
EXTT5=
EXTT6=
EXTT7=
EXTT8=
EXTT9=
EXTT10=
EXTT11=
EXTT12=
EXTT13=
PLAYORDER=
